<svg width="1440" height="1024" viewBox="0 0 1440 1024" fill="none" xmlns="http://www.w3.org/2000/svg">
<rect x="132" y="243" width="208" height="133" fill="#1E1E1E"/>
<rect x="1030" y="243" width="69" height="62" fill="#1E1E1E"/>
<rect x="817" y="481" width="356" height="240" fill="black"/>
<circle cx="995" cy="483" r="178" fill="black"/>
<path d="M695 -1V1024" stroke="#1B1B1B"/>
<path d="M410 0V1025" stroke="#1B1B1B"/>
<path d="M340 -1V1024" stroke="#1B1B1B"/>
<path d="M1443 466L-14 466" stroke="#1B1B1B"/>
<path d="M1449 580L-7.99995 580" stroke="#1B1B1B"/>
<path d="M1030 -1V1024" stroke="#1B1B1B"/>
<path d="M1100 -1V1024" stroke="#1B1B1B"/>
<path d="M133.5 -1V1024" stroke="#1B1B1B"/>
<path d="M1031.15 691H1037.94V689.848H1032.58V685.768H1037.09V684.616H1032.58V680.952H1037.94V679.8H1031.15V691ZM1043.11 691.096C1045.54 691.096 1046.94 689.768 1046.94 687.928C1046.94 686.12 1045.7 685.448 1044.15 684.92L1042.36 684.312C1041.19 683.928 1040.47 683.544 1040.47 682.536C1040.47 681.48 1041.38 680.84 1042.7 680.84C1044.3 680.84 1045.16 681.768 1045.5 682.728L1046.86 682.424C1046.38 680.952 1045.06 679.688 1042.78 679.688C1040.52 679.688 1039.08 680.92 1039.08 682.648C1039.08 684.296 1040.15 684.952 1041.83 685.512L1043.58 686.088C1044.73 686.488 1045.54 686.84 1045.54 688.008C1045.54 689.288 1044.47 689.944 1043.13 689.944C1041.5 689.944 1040.31 688.952 1039.99 687.48L1038.66 687.816C1039.05 689.768 1040.84 691.096 1043.11 691.096ZM1050.82 691H1052.25V680.952H1055.85V679.8H1047.22V680.952H1050.82V691ZM1055.42 691H1056.8V689.352H1055.42V691Z" fill="white"/>
<path d="M696.152 691H699.608C703.128 691 705.336 688.84 705.336 685.4C705.336 681.96 703.128 679.8 699.608 679.8H696.152V691ZM697.576 689.848V680.952H699.608C702.232 680.952 703.864 682.696 703.864 685.4C703.864 688.088 702.232 689.848 699.608 689.848H697.576ZM706.965 691H713.749V689.848H708.389V685.768H712.901V684.616H708.389V680.952H713.749V679.8H706.965V691ZM718.925 691.096C721.357 691.096 722.749 689.768 722.749 687.928C722.749 686.12 721.517 685.448 719.965 684.92L718.173 684.312C717.005 683.928 716.285 683.544 716.285 682.536C716.285 681.48 717.197 680.84 718.509 680.84C720.109 680.84 720.973 681.768 721.309 682.728L722.669 682.424C722.189 680.952 720.877 679.688 718.589 679.688C716.333 679.688 714.893 680.92 714.893 682.648C714.893 684.296 715.965 684.952 717.645 685.512L719.389 686.088C720.541 686.488 721.357 686.84 721.357 688.008C721.357 689.288 720.285 689.944 718.941 689.944C717.309 689.944 716.125 688.952 715.805 687.48L714.477 687.816C714.861 689.768 716.653 691.096 718.925 691.096ZM724.402 691H725.826V679.8H724.402V691ZM732.648 691.112C734.424 691.112 735.832 690.088 736.504 688.552V691H737.64V685.224H733.768L733.608 686.344H736.328C736.184 688.536 734.744 689.896 732.888 689.896C730.632 689.896 729.016 688.008 729.016 685.384C729.016 682.648 730.568 680.904 732.712 680.904C734.632 680.904 735.656 681.992 736.104 683.512L737.48 683.192C737 681.272 735.528 679.688 732.808 679.688C729.848 679.688 727.544 681.944 727.544 685.448C727.544 688.888 729.832 691.112 732.648 691.112ZM739.683 691H741.043V681.704L747.123 691H748.547V679.8H747.187V688.808L741.299 679.8H739.683V691Z" fill="#292929"/>
<path d="M140.952 232.112C143.336 232.112 145.048 230.608 145.608 228.496L144.248 228.144C143.848 229.888 142.6 230.896 140.952 230.896C138.52 230.896 137.032 229.056 137.032 226.352C137.032 223.696 138.552 221.904 140.84 221.904C142.552 221.904 143.752 223.024 144.184 224.72L145.56 224.384C145 222.144 143.272 220.688 140.856 220.688C137.704 220.688 135.56 223.008 135.56 226.4C135.56 229.808 137.624 232.112 140.952 232.112ZM151.839 232.112C154.991 232.112 157.039 229.872 157.039 226.4C157.039 222.928 154.991 220.688 151.839 220.688C148.671 220.688 146.623 222.928 146.623 226.4C146.623 229.872 148.671 232.112 151.839 232.112ZM148.095 226.4C148.095 223.68 149.599 221.904 151.839 221.904C154.079 221.904 155.567 223.68 155.567 226.4C155.567 229.12 154.079 230.896 151.839 230.896C149.599 230.896 148.095 229.12 148.095 226.4ZM163.754 232H165.002L168.65 222.832V232H170.01V220.8H168.154L164.41 230.224L160.602 220.8H158.746V232H160.106V222.976L163.754 232ZM172.308 232H173.732V227.872H175.876C178.356 227.872 179.892 226.496 179.892 224.32C179.892 222.16 178.308 220.8 175.764 220.8H172.308V232ZM173.732 226.72V221.952H175.7C177.38 221.952 178.436 222.864 178.436 224.336C178.436 225.808 177.38 226.72 175.7 226.72H173.732ZM181.402 232H188.186V230.848H182.826V226.768H187.338V225.616H182.826V221.952H188.186V220.8H181.402V232ZM189.715 232H196.115V230.848H191.139V220.8H189.715V232ZM197.293 232H203.693V230.848H198.717V220.8H197.293V232ZM204.871 232H206.295V220.8H204.871V232ZM208.605 232H209.965V222.704L216.045 232H217.469V220.8H216.109V229.808L210.221 220.8H208.605V232ZM224.289 232.112C226.065 232.112 227.473 231.088 228.145 229.552V232H229.281V226.224H225.409L225.249 227.344H227.969C227.825 229.536 226.385 230.896 224.529 230.896C222.273 230.896 220.657 229.008 220.657 226.384C220.657 223.648 222.209 221.904 224.353 221.904C226.273 221.904 227.297 222.992 227.745 224.512L229.121 224.192C228.641 222.272 227.169 220.688 224.449 220.688C221.489 220.688 219.185 222.944 219.185 226.448C219.185 229.888 221.473 232.112 224.289 232.112Z" fill="#292929"/>
<path d="M1036.16 462H1037.41L1041.06 452.832V462H1042.42V450.8H1040.56L1036.82 460.224L1033.01 450.8H1031.15V462H1032.51V452.976L1036.16 462ZM1049.53 450.8H1047.79L1043.6 462H1044.97L1046.08 459.024H1051.18L1052.27 462H1053.69L1049.53 450.8ZM1046.49 457.872L1048.64 452.064L1050.76 457.872H1046.49ZM1055.95 462H1057.37V451.952H1060.97V450.8H1052.35V451.952H1055.95V462ZM1065.15 462H1066.58V451.952H1070.18V450.8H1061.55V451.952H1065.15V462ZM1071.4 462H1078.19V460.848H1072.83V456.768H1077.34V455.616H1072.83V451.952H1078.19V450.8H1071.4V462Z" fill="#292929"/>
<path d="M1035.95 232.112C1038.34 232.112 1040.05 230.608 1040.61 228.496L1039.25 228.144C1038.85 229.888 1037.6 230.896 1035.95 230.896C1033.52 230.896 1032.03 229.056 1032.03 226.352C1032.03 223.696 1033.55 221.904 1035.84 221.904C1037.55 221.904 1038.75 223.024 1039.18 224.72L1040.56 224.384C1040 222.144 1038.27 220.688 1035.86 220.688C1032.7 220.688 1030.56 223.008 1030.56 226.4C1030.56 229.808 1032.62 232.112 1035.95 232.112ZM1042.14 232H1043.56V227.584H1046.2L1048.68 232H1050.23L1047.46 227.216C1048.73 226.896 1049.83 225.808 1049.83 224.128C1049.83 222.016 1048.33 220.8 1045.91 220.8H1042.14V232ZM1043.56 226.432V221.952H1045.62C1047.37 221.952 1048.36 222.752 1048.36 224.192C1048.36 225.632 1047.37 226.432 1045.93 226.432H1043.56ZM1056.61 220.8H1054.87L1050.67 232H1052.05L1053.15 229.024H1058.26L1059.35 232H1060.77L1056.61 220.8ZM1053.57 227.872L1055.71 222.064L1057.84 227.872H1053.57ZM1061.96 232H1063.39V227.088H1067.85V225.936H1063.39V221.952H1068.72V220.8H1061.96V232ZM1072.76 232H1074.19V221.952H1077.79V220.8H1069.16V221.952H1072.76V232Z" fill="#292929"/>
</svg>
